<?xml version="1.0" encoding="utf-8"?>
<!-- Generator: Adobe Illustrator 25.4.1, SVG Export Plug-In . SVG Version: 6.00 Build 0)  -->
<svg version="1.1" id="Capa_1" xmlns="http://www.w3.org/2000/svg" xmlns:xlink="http://www.w3.org/1999/xlink" x="0px" y="0px"
	 viewBox="0 0 165.7 54" style="enable-background:new 0 0 165.7 54;" xml:space="preserve">
<style type="text/css">
	.st0{enable-background:new    ;}
	.st1{fill:#FFFFFF;}
</style>
<g class="st0">
	<path class="st1" d="M9,32V0.9h9c1.8,0,3.3,0.2,4.6,0.5C23.9,1.8,25,2.3,25.8,3c0.9,0.7,1.5,1.5,1.9,2.5s0.6,2.1,0.6,3.3
		c0,0.8-0.1,1.6-0.4,2.4c-0.3,0.8-0.7,1.5-1.2,2.1s-1.2,1.2-2,1.7S23,15.8,22,16c2.4,0.4,4.3,1.2,5.7,2.4s2,2.9,2,5
		c0,1.3-0.2,2.5-0.7,3.6s-1.2,2-2,2.7s-2,1.3-3.3,1.7S20.9,32,19.3,32H9z M11.2,15.4H18c1.4,0,2.7-0.2,3.7-0.5
		c1-0.4,1.9-0.9,2.5-1.5c0.7-0.6,1.1-1.3,1.4-2c0.3-0.8,0.5-1.5,0.5-2.4c0-2.1-0.7-3.7-2-4.8c-1.3-1.1-3.4-1.6-6.1-1.6h-6.7v12.8
		H11.2z M11.2,17.1v13.1H19c2.7,0,4.8-0.6,6.2-1.8s2.1-2.8,2.1-5c0-1-0.2-1.9-0.6-2.7c-0.4-0.8-0.9-1.5-1.6-2s-1.6-1-2.6-1.3
		S20.3,17,19,17L11.2,17.1L11.2,17.1z"/>
	<path class="st1" d="M40.3,32H38V0.9h2.3V32z"/>
	<path class="st1" d="M69,0.9v1.9H52.6v12.6h13.6v1.8H52.6v13H69V32H50.4V0.9H69z"/>
	<path class="st1" d="M77.9,0.9C78,1,78.1,1.1,78.3,1.2l20.2,27c0-0.4-0.1-0.9-0.1-1.3v-26h2V32h-1.1c-0.3,0-0.6-0.1-0.8-0.4
		l-20.2-27c0,0.4,0.1,0.9,0.1,1.3V32h-2V0.9h1.1C77.7,0.9,77.8,0.9,77.9,0.9z"/>
	<path class="st1" d="M128.3,0.9v1.9h-16.4v12.6h13.6v1.8h-13.6v13h16.4V32h-18.7V0.9H128.3z"/>
	<path class="st1" d="M150.7,4.7c-0.1,0.2-0.3,0.4-0.6,0.4c-0.2,0-0.4-0.1-0.7-0.4s-0.7-0.6-1.2-0.9s-1.2-0.6-1.9-0.9
		c-0.8-0.3-1.7-0.4-2.9-0.4c-1.1,0-2.1,0.2-3,0.5c-0.9,0.3-1.6,0.8-2.2,1.3c-0.6,0.6-1,1.2-1.3,1.9s-0.5,1.5-0.5,2.3
		c0,1.1,0.2,1.9,0.7,2.6c0.4,0.7,1,1.3,1.8,1.8c0.7,0.5,1.6,0.9,2.5,1.2s1.9,0.7,2.9,1s1.9,0.7,2.9,1.1c0.9,0.4,1.8,0.9,2.5,1.5
		s1.3,1.3,1.8,2.2c0.4,0.9,0.7,1.9,0.7,3.2s-0.2,2.5-0.7,3.7c-0.4,1.2-1.1,2.2-1.9,3c-0.8,0.9-1.9,1.5-3.1,2
		c-1.2,0.5-2.6,0.7-4.2,0.7c-2.1,0-3.8-0.4-5.3-1.1c-1.5-0.7-2.8-1.7-3.9-3l0.6-1c0.2-0.2,0.4-0.3,0.6-0.3c0.1,0,0.3,0.1,0.5,0.3
		s0.5,0.4,0.7,0.6c0.3,0.3,0.6,0.5,1.1,0.8s0.9,0.6,1.4,0.8c0.5,0.3,1.2,0.5,1.9,0.6s1.5,0.3,2.4,0.3c1.2,0,2.3-0.2,3.3-0.6
		c1-0.4,1.8-0.9,2.5-1.5s1.2-1.4,1.5-2.3c0.4-0.9,0.5-1.8,0.5-2.8c0-1.1-0.2-2-0.7-2.7c-0.4-0.7-1-1.3-1.8-1.8
		c-0.7-0.5-1.6-0.9-2.5-1.2c-0.9-0.3-1.9-0.6-2.9-0.9s-1.9-0.7-2.9-1c-0.9-0.4-1.8-0.9-2.5-1.5s-1.3-1.3-1.8-2.2
		c-0.4-0.9-0.7-2-0.7-3.3c0-1,0.2-2,0.6-3c0.4-1,1-1.8,1.7-2.6c0.8-0.7,1.7-1.3,2.8-1.8s2.4-0.7,3.8-0.7c1.6,0,3.1,0.3,4.4,0.8
		s2.5,1.3,3.5,2.4L150.7,4.7z"/>
</g>
<g>
	<path class="st1" d="M12,33.9v17.7H8.8V33.9H12z"/>
	<path class="st1" d="M14.9,51.6V33.9H18l5.3,12.7L23.1,47V33.9H26v17.7h-3.2l-5.3-12.3l0.3-0.4v12.7H14.9z"/>
	<path class="st1" d="M35.9,44.7L39,33.9h3.6v17.7h-2.8V38.5l0.2,0.8l-3,9.7h-2.2l-3-9.5l0.2-1v13.1h-2.9V33.9h3.6L35.9,44.7z"/>
	<path class="st1" d="M51,51.8c-1.1,0-2.1-0.2-2.9-0.6c-0.8-0.4-1.4-1-1.9-1.9c-0.4-0.8-0.7-1.8-0.7-2.8V39c0-1.1,0.2-2,0.7-2.8
		c0.4-0.8,1.1-1.4,1.9-1.8c0.8-0.4,1.8-0.6,2.9-0.6s2.1,0.2,2.9,0.6s1.4,1,1.9,1.8s0.7,1.8,0.7,2.8v7.4c0,1.1-0.2,2-0.7,2.8
		s-1.1,1.4-1.9,1.9S52.1,51.8,51,51.8z M51,48.6c0.7,0,1.2-0.2,1.6-0.6c0.4-0.4,0.6-1,0.6-1.7v-7.1c0-0.7-0.2-1.3-0.6-1.7
		c-0.4-0.4-0.9-0.6-1.6-0.6c-0.7,0-1.2,0.2-1.6,0.6c-0.4,0.4-0.6,1-0.6,1.7v7.1c0,0.7,0.2,1.3,0.6,1.7C49.8,48.4,50.3,48.6,51,48.6z
		"/>
	<path class="st1" d="M59.1,51.6V33.9h3.1v17.7H59.1z M60.7,51.6v-3h4.1c0.6,0,1-0.1,1.3-0.4c0.3-0.3,0.5-0.7,0.5-1.2v-1.2
		c0-0.6-0.2-1-0.5-1.3c-0.3-0.3-0.8-0.5-1.3-0.5h-4.1v-3h4c0.5,0,0.9-0.1,1.2-0.4c0.3-0.3,0.4-0.7,0.4-1.2v-1c0-0.5-0.1-0.8-0.4-1.1
		c-0.3-0.3-0.7-0.4-1.2-0.4h-4v-3H65c1.4,0,2.6,0.4,3.4,1.1c0.8,0.7,1.2,1.8,1.2,3.1v1c0,0.9-0.3,1.7-0.8,2.3
		c-0.5,0.6-1.3,1-2.2,1.1c1,0.1,1.8,0.5,2.4,1.2c0.6,0.6,0.8,1.5,0.8,2.5v1.2c0,1.4-0.4,2.4-1.2,3.2c-0.8,0.7-1.9,1.1-3.4,1.1H60.7z
		"/>
	<path class="st1" d="M75.3,33.9v17.7h-3.2V33.9H75.3z"/>
	<path class="st1" d="M78.2,51.6V33.9h3.1v17.7H78.2z M79.6,51.6v-3.1h8.3v3.1H79.6z"/>
	<path class="st1" d="M92.9,33.9v17.7h-3.2V33.9H92.9z"/>
	<path class="st1" d="M94.3,51.6l5.4-17.7h2.1l5.4,17.7H104l-3.2-11.9l-3.2,11.9H94.3z M97.3,48.8v-3h7v3H97.3z"/>
	<path class="st1" d="M109.1,51.6V33.9h3.1v17.8H109.1z M110.5,44.3v-3.1h4.6c0.5,0,0.8-0.1,1.1-0.4c0.3-0.3,0.4-0.7,0.4-1.2v-1
		c0-0.5-0.1-0.9-0.4-1.2c-0.3-0.3-0.6-0.5-1.1-0.5h-4.6v-3.1h4.7c1,0,1.8,0.2,2.5,0.6c0.7,0.4,1.2,0.9,1.6,1.6
		c0.4,0.7,0.6,1.5,0.6,2.5v1c0,1-0.2,1.8-0.6,2.5c-0.4,0.7-0.9,1.3-1.6,1.6c-0.7,0.4-1.5,0.6-2.5,0.6H110.5z M116.8,51.6l-3.3-7.9
		l3.1-0.6l3.7,8.4H116.8z"/>
	<path class="st1" d="M125.8,33.9v17.7h-3.2V33.9H125.8z"/>
	<path class="st1" d="M134,51.8c-1.1,0-2.1-0.2-2.9-0.6s-1.4-1-1.9-1.9c-0.4-0.8-0.7-1.8-0.7-2.8V39c0-1.1,0.2-2,0.7-2.8
		c0.4-0.8,1.1-1.4,1.9-1.8s1.8-0.6,2.9-0.6s2.1,0.2,2.9,0.6s1.4,1,1.9,1.8s0.7,1.8,0.7,2.8v7.4c0,1.1-0.2,2-0.7,2.8
		s-1.1,1.4-1.9,1.9S135.1,51.8,134,51.8z M134,48.6c0.7,0,1.2-0.2,1.6-0.6c0.4-0.4,0.6-1,0.6-1.7v-7.1c0-0.7-0.2-1.3-0.6-1.7
		c-0.4-0.4-0.9-0.6-1.6-0.6c-0.7,0-1.2,0.2-1.6,0.6c-0.4,0.4-0.6,1-0.6,1.7v7.1c0,0.7,0.2,1.3,0.6,1.7
		C132.8,48.4,133.3,48.6,134,48.6z"/>
	<path class="st1" d="M146.7,51.8c-1,0-1.8-0.1-2.6-0.4s-1.4-0.7-1.8-1.3s-0.8-1.3-1-2.2l2.9-1.3c0.2,0.7,0.6,1.3,1,1.6
		s1,0.5,1.7,0.5c0.7,0,1.2-0.2,1.6-0.5c0.4-0.3,0.6-0.7,0.6-1.3v-0.8c0-0.4-0.1-0.8-0.4-1.1c-0.3-0.3-0.6-0.5-1-0.6
		c-0.4-0.2-0.9-0.3-1.4-0.5c-0.5-0.2-1.1-0.4-1.6-0.6c-0.5-0.2-1.1-0.5-1.5-0.8s-0.8-0.8-1.1-1.4c-0.3-0.6-0.4-1.3-0.4-2.2v-0.5
		c0-1.5,0.5-2.7,1.4-3.6s2.3-1.3,4-1.3c1.3,0,2.4,0.3,3.2,0.9c0.8,0.6,1.4,1.6,1.7,2.8l-2.8,1.4c-0.2-0.7-0.5-1.2-0.9-1.6
		s-0.9-0.5-1.4-0.5c-0.7,0-1.2,0.1-1.5,0.4c-0.4,0.3-0.5,0.7-0.5,1.2V39c0,0.5,0.1,0.9,0.4,1.2c0.3,0.3,0.7,0.5,1.1,0.7
		c0.5,0.2,1,0.3,1.5,0.5c0.5,0.2,1.1,0.4,1.6,0.6c0.5,0.2,1,0.5,1.4,0.8c0.4,0.3,0.8,0.8,1,1.3c0.3,0.6,0.4,1.2,0.4,2.1v0.8
		c0,1.5-0.5,2.7-1.4,3.6S148.5,51.8,146.7,51.8z"/>
</g>
</svg>
